<svg width="24" height="24" viewBox="0 0 24 24" fill="none" xmlns="http://www.w3.org/2000/svg">
<rect width="24" height="24" fill="#F5F8FF"/>
<path d="M12 18C8.69063 18 6 15.3109 6 12.0023C6 8.68909 8.69063 6 12 6C15.3094 6 18 8.68909 18 11.9977C18 15.3062 15.3094 18 12 18ZM17.0578 12.8189C16.8844 12.7626 15.4734 12.3449 13.8656 12.5984C14.5359 14.438 14.8078 15.9398 14.8594 16.2495C16.0125 15.4752 16.8328 14.2456 17.0578 12.8189ZM14.0016 16.7235C13.9266 16.273 13.6266 14.7055 12.9094 12.8377C12.9 12.8424 12.8859 12.8471 12.8766 12.8471C9.98437 13.8561 8.94844 15.86 8.85469 16.0477C9.72188 16.7235 10.8141 17.1271 12 17.1271C12.7078 17.1318 13.3875 16.9863 14.0016 16.7235ZM8.19375 15.4329C8.31094 15.2358 9.71719 12.9081 12.3609 12.0493C12.4266 12.0258 12.4969 12.007 12.5625 11.9883C12.4359 11.6973 12.2953 11.4063 12.1453 11.1201C9.58594 11.885 7.10156 11.8522 6.87656 11.8475C6.87656 11.8991 6.87188 11.9507 6.87188 12.0023C6.87656 13.3211 7.37344 14.5225 8.19375 15.4329ZM6.98438 10.9558C7.21406 10.9605 9.32344 10.9699 11.7234 10.3316C10.875 8.82049 9.95625 7.55338 9.825 7.37036C8.38594 8.04615 7.31719 9.36957 6.98438 10.9558ZM10.8 7.02307C10.9406 7.21079 11.8734 8.4779 12.7125 10.0219C14.5359 9.33672 15.3047 8.30426 15.3984 8.17286C14.4938 7.37036 13.3031 6.88228 12 6.88228C11.5875 6.88228 11.1844 6.93391 10.8 7.02307ZM15.9656 8.76418C15.8578 8.90966 15 10.0125 13.1063 10.7869C13.2234 11.0309 13.3406 11.2796 13.4484 11.5284C13.4859 11.6175 13.5234 11.7067 13.5609 11.7912C15.2672 11.5753 16.9594 11.9226 17.1281 11.9554C17.1141 10.7493 16.6828 9.63707 15.9656 8.76418Z" fill="#151515"/>
</svg>
