<svg width="20" height="20" viewBox="0 0 20 20" fill="none" xmlns="http://www.w3.org/2000/svg">
<path d="M7.01005 9.75C7.42426 9.75 7.76005 9.4142 7.76005 9C7.76005 8.5858 7.42426 8.25 7.01005 8.25V9.75ZM7.00005 8.25C6.58583 8.25 6.25005 8.5858 6.25005 9C6.25005 9.4142 6.58583 9.75 7.00005 9.75V8.25ZM13.01 9.75C13.4243 9.75 13.76 9.4142 13.76 9C13.76 8.5858 13.4243 8.25 13.01 8.25V9.75ZM13 8.25C12.5858 8.25 12.25 8.5858 12.25 9C12.25 9.4142 12.5858 9.75 13 9.75V8.25ZM4.77814 6.75H15.222V5.25H4.77814V6.75ZM17.4653 8.8274L18.0038 15.8274L19.4994 15.7124L18.9609 8.7124L17.4653 8.8274ZM15.7604 18.25H4.23968V19.75H15.7604V18.25ZM1.99631 15.8274L2.53477 8.8274L1.03919 8.7124L0.500732 15.7124L1.99631 15.8274ZM4.23968 18.25C2.92903 18.25 1.89579 17.1342 1.99631 15.8274L0.500732 15.7124C0.333192 17.8904 2.05527 19.75 4.23968 19.75V18.25ZM18.0038 15.8274C18.1043 17.1342 17.0711 18.25 15.7604 18.25V19.75C17.9448 19.75 19.6669 17.8904 19.4994 15.7124L18.0038 15.8274ZM15.222 6.75C16.3977 6.75 17.3752 7.65519 17.4653 8.8274L18.9609 8.7124C18.8106 6.75865 17.1815 5.25 15.222 5.25V6.75ZM4.77814 5.25C2.81863 5.25 1.18947 6.75865 1.03919 8.7124L2.53477 8.8274C2.62494 7.65519 3.60244 6.75 4.77814 6.75V5.25ZM12.25 4V6H13.75V4H12.25ZM7.75005 6V4H6.25005V6H7.75005ZM10 1.75C11.2427 1.75 12.25 2.75736 12.25 4H13.75C13.75 1.92893 12.0711 0.25 10 0.25V1.75ZM10 0.25C7.92898 0.25 6.25005 1.92893 6.25005 4H7.75005C7.75005 2.75736 8.7574 1.75 10 1.75V0.25ZM7.01005 8.25H7.00005V9.75H7.01005V8.25ZM13.01 8.25H13V9.75H13.01V8.25Z" fill="#252432"/>
</svg>
