<svg width="24" height="24" viewBox="0 0 24 24" fill="none" xmlns="http://www.w3.org/2000/svg">
<rect width="24" height="24" fill="#F5F8FF"/>
<path fill-rule="evenodd" clip-rule="evenodd" d="M9.34384 17.9268C10.2305 17.9807 11.1161 18.0019 12 17.9999C12.8838 18.0019 13.7695 17.9807 14.6562 17.9268C15.4029 17.8814 16.1113 17.6341 16.7019 17.1524C17.2708 16.6885 17.6277 16.0671 17.8053 15.371C17.9695 14.728 17.9783 14.0816 17.9863 13.4977L17.9865 13.4862C17.9932 12.9924 17.9988 12.497 18 12.0011V12V11.9989C17.9988 11.503 17.9932 11.0076 17.9865 10.5138L17.9863 10.5023C17.9783 9.91841 17.9694 9.27203 17.8053 8.62894C17.6277 7.93285 17.2708 7.3115 16.7019 6.8476C16.1113 6.36594 15.4029 6.11864 14.6562 6.07324C13.7695 6.01932 12.8838 5.99807 12 6.00014C11.1161 5.99807 10.2305 6.01932 9.34384 6.07324C8.59713 6.11864 7.88872 6.36594 7.29805 6.8476C6.72915 7.3115 6.37226 7.93286 6.19463 8.62893C6.0305 9.27213 6.02167 9.91861 6.0137 10.5025L6.01355 10.5138C6.00679 11.0076 6.00116 11.503 6 11.9989V12V12.0011C6.00116 12.497 6.00679 12.9924 6.01355 13.4862L6.0137 13.4975C6.02167 14.0814 6.0305 14.7279 6.19463 15.3711C6.37226 16.0671 6.72915 16.6885 7.29805 17.1524C7.88872 17.6341 8.59713 17.8814 9.34384 17.9268ZM11.9989 17.0624C11.131 17.0644 10.265 17.0436 9.40075 16.991C8.82704 16.9561 8.31206 16.7696 7.89056 16.4259C7.49895 16.1065 7.23848 15.6699 7.10306 15.1393C6.96974 14.6168 6.95924 14.0767 6.95099 13.4734C6.94426 12.9811 6.93869 12.4902 6.93754 12C6.93869 11.5098 6.94426 11.0189 6.95099 10.5266C6.95924 9.92329 6.96974 9.38321 7.10306 8.86073C7.23848 8.33008 7.49895 7.89348 7.89056 7.57415C8.31205 7.23044 8.82704 7.0439 9.40075 7.00901C10.265 6.95645 11.131 6.93559 11.9989 6.93764H12H12.0011C12.8689 6.93559 13.735 6.95645 14.5992 7.00901C15.173 7.0439 15.6879 7.23043 16.1094 7.57414C16.501 7.89347 16.7615 8.33008 16.8969 8.86072C17.0302 9.3832 17.0407 9.92328 17.049 10.5266C17.0557 11.0189 17.0613 11.5097 17.0625 12C17.0613 12.4903 17.0557 12.9811 17.049 13.4734C17.0407 14.0767 17.0302 14.6168 16.8969 15.1393C16.7615 15.6699 16.501 16.1065 16.1094 16.4259C15.6879 16.7696 15.173 16.9561 14.5992 16.991C13.735 17.0436 12.8689 17.0644 12.0011 17.0624H12H11.9989Z" fill="#151515"/>
<path fill-rule="evenodd" clip-rule="evenodd" d="M9.08569 12C9.08569 13.6095 10.3905 14.9143 12 14.9143C13.6095 14.9143 14.9143 13.6095 14.9143 12C14.9143 10.3905 13.6095 9.08569 12 9.08569C10.3905 9.08569 9.08569 10.3905 9.08569 12ZM12 13.9817C10.9055 13.9817 10.0183 13.0945 10.0183 12C10.0183 10.9055 10.9055 10.0183 12 10.0183C13.0945 10.0183 13.9817 10.9055 13.9817 12C13.9817 13.0945 13.0945 13.9817 12 13.9817Z" fill="#151515"/>
<path d="M15.9429 8.74284C15.9429 9.12154 15.6359 9.42856 15.2572 9.42856C14.8785 9.42856 14.5715 9.12154 14.5715 8.74284C14.5715 8.36415 14.8785 8.05713 15.2572 8.05713C15.6359 8.05713 15.9429 8.36415 15.9429 8.74284Z" fill="#151515"/>
</svg>
