<svg width="24" height="24" viewBox="0 0 24 24" fill="none" xmlns="http://www.w3.org/2000/svg">
<rect width="24" height="24" fill="#F5F8FF"/>
<path d="M17.2 17.1999V13.4641C17.2 11.6281 16.8048 10.2256 14.6628 10.2256C13.63 10.2256 12.9415 10.7866 12.661 11.3221H12.6355V10.3914H10.6083V17.1999H12.7248V13.8211C12.7248 12.9286 12.8905 12.0744 13.987 12.0744C15.0708 12.0744 15.0835 13.0816 15.0835 13.8721V17.1871H17.2V17.1999Z" fill="#151515"/>
<path d="M7.16571 10.3916H9.28221V17.2001H7.16571V10.3916Z" fill="#151515"/>
<path d="M8.224 7C7.54825 7 7 7.54825 7 8.224C7 8.89975 7.54825 9.46075 8.224 9.46075C8.89975 9.46075 9.448 8.89975 9.448 8.224C9.448 7.54825 8.89975 7 8.224 7Z" fill="#151515"/>
</svg>
