<svg width="24" height="24" viewBox="0 0 24 24" fill="none" xmlns="http://www.w3.org/2000/svg">
<rect width="24" height="24" fill="#F5F8FF"/>
<path d="M17.5373 9.00464C16.8514 9.00464 16.2185 8.77741 15.7103 8.39408C15.1275 7.95466 14.7087 7.31007 14.5608 6.56713C14.5242 6.38356 14.5045 6.19413 14.5026 6H12.5433V11.3539L12.5409 14.2865C12.5409 15.0705 12.0304 15.7353 11.3226 15.9691C11.1172 16.0369 10.8954 16.0691 10.6644 16.0564C10.3696 16.0402 10.0933 15.9512 9.85317 15.8076C9.34214 15.5019 8.99567 14.9475 8.98628 14.3132C8.97149 13.3219 9.77289 12.5137 10.7635 12.5137C10.959 12.5137 11.1468 12.5456 11.3226 12.6036V11.1403V10.6142C11.1372 10.5868 10.9485 10.5724 10.7576 10.5724C9.67336 10.5724 8.65929 11.0231 7.93443 11.8351C7.38655 12.4487 7.05792 13.2315 7.00721 14.0524C6.94078 15.1308 7.33538 16.1559 8.10062 16.9122C8.21306 17.0233 8.33113 17.1263 8.4546 17.2214C9.11069 17.7263 9.91279 18 10.7576 18C10.9485 18 11.1372 17.9859 11.3226 17.9585C12.1118 17.8416 12.84 17.4803 13.4146 16.9122C14.1207 16.2144 14.5108 15.2878 14.515 14.3017L14.505 9.92246C14.8418 10.1823 15.2101 10.3973 15.6054 10.5642C16.2202 10.8236 16.872 10.9551 17.5429 10.9548V9.53209V9.00417L17.5373 9.00464Z" fill="#151515"/>
</svg>
